<?xml version="1.0" encoding="UTF-8"?>
<svg viewBox="0 0 600 320" xmlns="http://www.w3.org/2000/svg">
<rect width="600" height="320" fill="white"/>
<text x="300" y="20" text-anchor="middle" font-family="Inter,DejaVu Sans,sans-serif" font-size="14" font-weight="700" fill="#1B1B2F">Team Structure — Cap of 8 in 24 Months</text>
<rect x="250" y="35" width="100" height="30" rx="3" fill="#1B1B2F"/>
<text x="300" y="55" text-anchor="middle" font-family="Inter,DejaVu Sans,sans-serif" font-size="11" font-weight="700" fill="white">Founder</text>
<line x1="300" y1="65" x2="110" y2="90" stroke="#4A4A6A" stroke-width="1"/>
<rect x="80" y="90" width="80" height="26" rx="2" fill="#C5A55A"/>
<text x="120" y="108" text-anchor="middle" font-family="Inter,DejaVu Sans,sans-serif" font-size="10" font-weight="700" fill="white">Host</text>
<line x1="300" y1="65" x2="310" y2="90" stroke="#4A4A6A" stroke-width="1"/>
<rect x="280" y="90" width="80" height="26" rx="2" fill="#C5A55A"/>
<text x="320" y="108" text-anchor="middle" font-family="Inter,DejaVu Sans,sans-serif" font-size="10" font-weight="700" fill="white">Engineer</text>
<line x1="300" y1="65" x2="510" y2="90" stroke="#4A4A6A" stroke-width="1"/>
<rect x="480" y="90" width="80" height="26" rx="2" fill="#C5A55A"/>
<text x="520" y="108" text-anchor="middle" font-family="Inter,DejaVu Sans,sans-serif" font-size="10" font-weight="700" fill="white">Writer</text>
<line x1="120" y1="116" x2="60" y2="155" stroke="#4A4A6A" stroke-width="0.8" opacity="0.6"/>
<rect x="30" y="155" width="60" height="24" rx="2" fill="#7A9E7E" opacity="0.9"/>
<text x="60" y="171" text-anchor="middle" font-family="Inter,DejaVu Sans,sans-serif" font-size="8" font-weight="700" fill="white">Host #2</text>
<line x1="120" y1="116" x2="160" y2="155" stroke="#4A4A6A" stroke-width="0.8" opacity="0.6"/>
<rect x="130" y="155" width="60" height="24" rx="2" fill="#7A9E7E" opacity="0.9"/>
<text x="160" y="171" text-anchor="middle" font-family="Inter,DejaVu Sans,sans-serif" font-size="8" font-weight="700" fill="white">Writer #2</text>
<line x1="320" y1="116" x2="260" y2="155" stroke="#4A4A6A" stroke-width="0.8" opacity="0.6"/>
<rect x="230" y="155" width="60" height="24" rx="2" fill="#7A9E7E" opacity="0.9"/>
<text x="260" y="171" text-anchor="middle" font-family="Inter,DejaVu Sans,sans-serif" font-size="8" font-weight="700" fill="white">Ops</text>
<line x1="320" y1="116" x2="360" y2="155" stroke="#4A4A6A" stroke-width="0.8" opacity="0.6"/>
<rect x="330" y="155" width="60" height="24" rx="2" fill="#7A9E7E" opacity="0.9"/>
<text x="360" y="171" text-anchor="middle" font-family="Inter,DejaVu Sans,sans-serif" font-size="8" font-weight="700" fill="white">Engineer #2</text>
<line x1="320" y1="116" x2="460" y2="155" stroke="#4A4A6A" stroke-width="0.8" opacity="0.6"/>
<rect x="430" y="155" width="60" height="24" rx="2" fill="#7A9E7E" opacity="0.9"/>
<text x="460" y="171" text-anchor="middle" font-family="Inter,DejaVu Sans,sans-serif" font-size="8" font-weight="700" fill="white">Community</text>
<text x="300" y="225" text-anchor="middle" font-family="Inter,DejaVu Sans,sans-serif" font-size="10" fill="#4A4A6A" font-weight="600">Year 1: 4 people  ·  Year 2: 8 people max</text>
<text x="300" y="245" text-anchor="middle" font-family="Inter,DejaVu Sans,sans-serif" font-size="9" fill="#888" font-style="italic">Every hire beyond the third passes a written 5-question philosophy test</text>
</svg>